<?xml version="1.0" encoding="utf-8"?>
<!-- Generator: Adobe Illustrator 25.4.1, SVG Export Plug-In . SVG Version: 6.00 Build 0)  -->
<svg version="1.1" id="Layer_1" xmlns="http://www.w3.org/2000/svg" xmlns:xlink="http://www.w3.org/1999/xlink" x="0px" y="0px"
	 viewBox="0 0 890 285" style="enable-background:new 0 0 890 285;" xml:space="preserve">
<style type="text/css">
	.st0{fill:#262626;}
	.st1{fill:#FFFFFF;}
	.st2{fill:#F4B81F;}
	.st3{opacity:0.2;fill:#FFFFFF;}
</style>
<path class="st0" d="M120.5,38.1h-1.8c-2.1,0-3.7-1.7-3.7-3.7V8c0-2.1,1.7-3.7,3.7-3.7h1.8c2.1,0,3.7,1.7,3.7,3.7v26.4
	C124.2,36.5,122.6,38.1,120.5,38.1z"/>
<path class="st1" d="M175.5,168.8c0,24.4-15.6,45.1-37.3,52.8c-5.8,2.1-12.1,3.2-18.7,3.2c-6.5,0-12.8-1.1-18.7-3.2
	c-21.7-7.7-37.3-28.4-37.3-52.8v-37.9c0-1.8,1.4-3.2,3.2-3.2h30.9c1.8,0,3.2,1.4,3.2,3.2l0,0v37.2c0,9.9,7.5,18.6,17.4,19.3
	c10.9,0.7,19.9-7.9,19.9-18.6v-37.9l0,0c0-1.8,1.4-3.2,3.2-3.2h30.9c1.8,0,3.2,1.4,3.2,3.2V168.8z"/>
<g>
	<path class="st2" d="M209.7,75.5h-31.2c-1.6,0-2.9,1.2-3.1,2.8c-0.7,4.5-3,8.5-6.3,11.4c-3.3,2.8-7.5,4.5-12.1,4.5
		c-9.4,0-17.2-7-18.5-16.1c-0.3-1.5-1.5-2.6-3.1-2.6h-15.8h-15.8c-1.6,0-2.8,1.2-3.1,2.7c-1.3,9-9.1,16-18.5,16
		c-4.6,0-8.9-1.7-12.1-4.5c-3.3-2.9-5.7-6.9-6.3-11.4c-0.2-1.6-1.5-2.8-3.1-2.8H29.4c-1.8,0-3.2,1.4-3.2,3.2v90.1
		c0,93.3,93.3,112,93.3,112s93.3-18.7,93.3-112V78.7C212.9,76.9,211.4,75.5,209.7,75.5z M175.5,168.8c0,24.4-15.6,45.1-37.3,52.8
		c-5.8,2.1-12.1,3.2-18.7,3.2s-12.8-1.1-18.7-3.2c-21.7-7.7-37.3-28.4-37.3-52.8v-37.9c0-1.8,1.4-3.2,3.2-3.2h30.9
		c1.8,0,3.2,1.4,3.2,3.2v37.2c0,9.9,7.5,18.6,17.4,19.3c10.9,0.7,19.9-7.9,19.9-18.6v-37.9c0-1.8,1.4-3.2,3.2-3.2h30.9
		c1.8,0,3.2,1.4,3.2,3.2V168.8z"/>
</g>
<path class="st0" d="M66.7,38.3l-7.1-18.4c-0.7-1.9,0.2-4.1,2.2-4.8l1.7-0.7c1.9-0.7,4.1,0.2,4.8,2.2l7.1,18.4
	c0.7,1.9-0.2,4.1-2.2,4.8l-1.7,0.7C69.6,41.2,67.4,40.2,66.7,38.3z"/>
<path class="st0" d="M167.6,40.5l-1.7-0.7c-1.9-0.7-2.9-2.9-2.2-4.8l7.1-18.4c0.7-1.9,2.9-2.9,4.8-2.2l1.7,0.7
	c1.9,0.7,2.9,2.9,2.2,4.8l-7.1,18.4C171.7,40.2,169.6,41.2,167.6,40.5z"/>
<path class="st0" d="M18.5,57.8l-6.2-6.9c-1.4-1.5-1.3-3.9,0.3-5.3l1.4-1.2c1.5-1.4,3.9-1.3,5.3,0.3l6.2,6.9
	c1.4,1.5,1.3,3.9-0.3,5.3l-1.4,1.2C22.2,59.4,19.9,59.3,18.5,57.8z"/>
<path class="st0" d="M215.4,58.1l-1.4-1.2c-1.5-1.4-1.7-3.8-0.3-5.3l6.2-6.9c1.4-1.5,3.8-1.7,5.3-0.3l1.4,1.2
	c1.5,1.4,1.7,3.8,0.3,5.3l-6.2,6.9C219.3,59.3,216.9,59.5,215.4,58.1z"/>
<path class="st0" d="M490.3,106.2h-29h-10.8h-16.5c-0.8,0-1.4,0.6-1.4,1.4v140.9c0,0.8,0.6,1.4,1.4,1.4h25.9c0.8,0,1.4-0.6,1.4-1.4
	v-27.3h29c31.8,0,57.5-25.8,57.5-57.5v0C547.8,131.9,522.1,106.2,490.3,106.2z M519.1,163.7c0,15.9-12.9,28.8-28.8,28.8h-29v-57.5
	h29C506.2,134.9,519.1,147.8,519.1,163.7L519.1,163.7z"/>
<path class="st0" d="M367.1,193.8c0,15.7-12.6,28.5-28.2,28.8c-16.1,0.3-29.3-13.2-29.3-29.3v-85.6c0-0.8-0.6-1.4-1.4-1.4h-25.9
	c-0.8,0-1.4,0.6-1.4,1.4v85.4c0,31.7,25.4,58,57.1,58.3c32,0.2,58-25.6,58-57.5v-86.2c0-0.8-0.6-1.4-1.4-1.4h-25.9
	c-0.8,0-1.4,0.6-1.4,1.4V193.8z"/>
<path class="st0" d="M875.7,133.5v-25.9c0-0.8-0.6-1.4-1.4-1.4h-62.1h-27.3c-0.8,0-1.4,0.6-1.4,1.4v27.3v28.4v28.8v29.1v27.3
	c0,0.8,0.6,1.4,1.4,1.4h27.3h65.1c0.8,0,1.4-0.6,1.4-1.4v-25.9c0-0.8-0.6-1.4-1.4-1.4h-65.1v-30.1h54.6c0.8,0,1.4-0.6,1.4-1.4v-25.9
	c0-0.8-0.6-1.4-1.4-1.4h-54.6v-27.4h62.1C875,134.9,875.7,134.3,875.7,133.5z"/>
<path class="st0" d="M601.1,149.9c0-9.2,9.9-16.3,29-16.3c11.3-0.4,28.9,2.5,44.5,7.7c0.9,0.3,1.9-0.4,1.9-1.3v-26.8
	c0-0.6-0.4-1.2-1-1.4c-9.9-3-22.6-6.9-46-6.9c-37.6,0-56.6,23.3-56.6,44.7c0,61.1,82.4,28.8,82.4,58.4c0,10.6-11.5,14.5-27,14.5
	c-23.3,0-42.4-6.4-53.3-10.4c-0.9-0.3-1.9,0.3-1.9,1.3c0,6,0,23.2,0,27.6c0,0.6,0.4,1.1,0.9,1.3c11.6,4.1,31.7,9.1,54.7,9.1
	c38.5,0,55.9-24.2,55.9-46.9C684.6,145.9,601.1,174.7,601.1,149.9z"/>
<path class="st0" d="M745.7,248.6C745.7,248.6,745.7,248.6,745.7,248.6l0-140.9c0,0,0,0,0,0c0-0.8-0.6-1.4-1.4-1.4h-25.9
	c-0.8,0-1.4,0.6-1.4,1.4v141c0,0.8,0.6,1.4,1.4,1.4h25.9C745.1,250,745.7,249.4,745.7,248.6z"/>
<path class="st3" d="M119.5,187.4C119.6,187.4,119.6,187.4,119.5,187.4c0.2,0,0.3,0,0.4,0c0.3,0,0.6,0,0.9,0c0.4,0,0.7-0.1,1.1-0.1
	c0.3,0,0.5-0.1,0.8-0.1c0.4-0.1,0.8-0.1,1.2-0.2c0.2-0.1,0.4-0.1,0.7-0.2c0,0,0.1,0,0.1,0c0.4-0.1,0.7-0.2,1.1-0.3
	c0.2-0.1,0.4-0.1,0.5-0.2c0.4-0.2,0.8-0.3,1.2-0.5c0.1-0.1,0.3-0.1,0.4-0.2c0.4-0.2,0.8-0.4,1.3-0.7c0.1-0.1,0.2-0.1,0.3-0.2
	c0.4-0.3,0.9-0.6,1.3-0.9c0.1-0.1,0.2-0.1,0.2-0.2c0.4-0.3,0.9-0.7,1.3-1.1c0,0,0.1-0.1,0.1-0.1c0,0,0.1-0.1,0.1-0.1
	c0.4-0.4,0.8-0.8,1.1-1.2c0,0,0,0,0,0c0.4-0.4,0.7-0.9,1.1-1.4c0.1-0.2,0.2-0.3,0.3-0.5c0.2-0.3,0.4-0.6,0.6-1
	c0.1-0.2,0.2-0.4,0.3-0.6c0.2-0.3,0.3-0.6,0.5-1c0.1-0.2,0.2-0.4,0.3-0.7c0.1-0.3,0.3-0.7,0.4-1c0.1-0.2,0.2-0.5,0.2-0.7
	c0.1-0.4,0.2-0.7,0.3-1.1c0.1-0.2,0.1-0.5,0.2-0.7c0.1-0.4,0.1-0.8,0.2-1.2c0-0.2,0.1-0.4,0.1-0.6c0.1-0.6,0.1-1.2,0.1-1.8
	c0,0,0,0,0,0v-0.2v-37.6c0-1.8,1.4-3.2,3.2-3.2h30.9c1.8,0,3.2,1.4,3.2,3.2v10.5c0,0.1,0,0.3,0,0.4v26.9c0,24.4-15.6,45.1-37.3,52.8
	c-5.8,2.1-12.1,3.2-18.7,3.2c0,0,0,0,0,0c0,0,0,0,0,0c0,0,0,0,0,0v56c0,0,4.5-0.9,11.4-3.3c1-0.3,2-0.7,3.1-1.1
	c1.6-0.6,3.4-1.3,5.2-2c3.7-1.5,7.6-3.3,11.8-5.5c1.4-0.7,2.8-1.5,4.2-2.3c1.4-0.8,2.9-1.6,4.3-2.5c21-12.9,43.7-34.8,50.9-71
	c0.2-1.2,0.5-2.5,0.7-3.8c0.6-3.8,1.1-7.8,1.4-12c0.2-2.8,0.3-5.6,0.3-8.5V78.7c0-0.8-0.3-1.6-0.9-2.2c0,0,0-0.1-0.1-0.1
	c-0.6-0.6-1.4-0.9-2.3-0.9h-31.2c0,0-0.1,0-0.1,0c-0.2,0-0.3,0-0.5,0c0,0,0,0-0.1,0c-1.3,0.3-2.3,1.4-2.5,2.7c0,0.3-0.1,0.6-0.2,0.9
	c-0.1,0.3-0.1,0.5-0.2,0.8c-0.1,0.3-0.2,0.6-0.3,0.9c-0.1,0.2-0.1,0.5-0.2,0.7c-0.1,0.3-0.2,0.6-0.3,0.9c-0.1,0.2-0.2,0.5-0.3,0.7
	c-0.1,0.3-0.3,0.6-0.4,0.9c-0.1,0.2-0.2,0.4-0.3,0.6c-0.2,0.3-0.4,0.6-0.5,0.9c-0.1,0.2-0.2,0.4-0.3,0.5c-0.2,0.3-0.4,0.6-0.7,0.9
	c-0.1,0.1-0.2,0.3-0.3,0.4c-0.3,0.3-0.6,0.7-0.9,1c-0.1,0.1-0.1,0.2-0.2,0.2c-0.4,0.4-0.8,0.8-1.2,1.1c-1.2,1-2.6,1.9-4,2.6
	c-1,0.5-2,0.9-3.1,1.2c-0.6,0.2-1.2,0.3-1.9,0.4c-1,0.2-2.1,0.3-3.1,0.3c0,0,0,0-0.1,0c-0.6,0-1.1,0-1.7-0.1c-0.2,0-0.5-0.1-0.7-0.1
	c-0.3,0-0.7-0.1-1-0.1c-0.3-0.1-0.5-0.1-0.8-0.2c-0.3-0.1-0.6-0.1-0.8-0.2c-0.3-0.1-0.6-0.2-0.9-0.3c-0.2-0.1-0.5-0.1-0.7-0.2
	c-0.3-0.1-0.6-0.3-1-0.4c-0.2-0.1-0.4-0.2-0.6-0.2c-0.3-0.2-0.7-0.4-1-0.6c-0.1-0.1-0.3-0.2-0.4-0.2c-0.4-0.2-0.7-0.5-1.1-0.7
	c-0.1-0.1-0.2-0.1-0.3-0.2c-0.4-0.3-0.7-0.6-1.1-0.9c-0.1-0.1-0.1-0.1-0.2-0.2c-0.4-0.3-0.7-0.7-1.1-1c0,0-0.1-0.1-0.1-0.1
	c-0.4-0.4-0.7-0.8-1-1.2c0,0,0,0,0-0.1c-0.3-0.4-0.7-0.9-1-1.3c0,0,0,0,0,0c-1.5-2.3-2.5-4.9-2.9-7.8c-0.3-1.5-1.5-2.6-3.1-2.6
	h-15.8V187.4z"/>
</svg>
